<svg width="47.500000" height="55.326660" viewBox="0 0 47.5 55.3267" fill="none" xmlns="http://www.w3.org/2000/svg" xmlns:xlink="http://www.w3.org/1999/xlink">
	<desc>
			Created with Pixso.
	</desc>
	<defs/>
	<path id="↳ Icon Color" d="M3.33 3.88C0 7.77 0 14.03 0 26.55L0 28.76C0 41.28 0 47.54 3.33 51.43C6.67 55.32 12.05 55.32 22.8 55.32L24.7 55.32C35.44 55.32 40.82 55.32 44.16 51.43C47.5 47.54 47.5 41.28 47.5 28.76L47.5 26.55C47.5 14.03 47.5 7.77 44.16 3.88C40.82 0 35.44 0 24.7 0L22.8 0C12.05 0 6.67 0 3.33 3.88ZM8 16.88C8.25 31.25 14.41 39.89 25.22 39.89L25.83 39.89L25.83 31.67C29.8 32.13 32.81 35.51 34.01 39.89L39.62 39.89C38.08 33.35 34.03 29.73 31.5 28.35C34.03 26.65 37.59 22.5 38.43 16.88L33.34 16.88C32.23 21.44 28.95 25.59 25.83 25.98L25.83 16.88L20.74 16.88L20.74 32.82C17.58 31.9 13.59 27.43 13.41 16.88L8 16.88Z" fill="#E4E4E4" fill-opacity="1.000000" fill-rule="evenodd"/>
</svg>
